<svg width="37" height="32.148" fill="none" xmlns="http://www.w3.org/2000/svg"><path d="m9.8 30.729-3.252-5.634 4.773-8.244 3.033 5.254 17.905-.01-5.08 8.712z" class="ccompli2" fill="#FFAD64" style="fill:#ffe664;fill-opacity:1"/><path d="m35.457 16.501-3.253 5.634-9.526-.012 3.033-5.253L16.75 1.368l10.085.044z" class="ccompli1" fill="#ADD4D3" style="fill:#e7004a;fill-opacity:1"/><path d="M10.302 1.338h6.504l4.754 8.256h-6.067L6.55 25.104 1.545 16.35z" class="ccustom" fill="#FB8351" style="fill:#2d8393;fill-opacity:1"/><path fill-rule="evenodd" clip-rule="evenodd" d="M17.6.034 17.58 0H9.533L0 16.342l6.544 11.45.008-.013 2.474 4.284 18.92.085 6.643-11.392h-.044L37 16.505 27.613.078zm6.224 10.898h.05l-4.73-8.215 6.912.03 7.857 13.75-2.459 4.26-6.445.004 2.247-3.892zm-7.863-8.256 3.225 5.58H14.72L7.075 21.515l-.522.9-3.463-6.059 7.98-13.68zM12.86 16.84l3.406-5.908h4.467l3.433 5.938-2.248 3.893-6.791.003zM8.096 25.1l1.296-2.247 1.927-3.329 2.263 3.92 6.79-.004-.01.019 9.547.01-3.497 5.996-15.837-.07z" class="cneutral" fill="#333237"/></svg>
